<svg width="52" height="9" viewBox="0 0 52 9" fill="none" xmlns="http://www.w3.org/2000/svg">
<path d="M0.752 9C0.416 9 0.248 8.832 0.248 8.496V1.368C0.248 1.032 0.416 0.864 0.752 0.864H5.168C5.324 0.864 5.446 0.91 5.534 1.002C5.626 1.09 5.672 1.212 5.672 1.368C5.672 1.704 5.504 1.872 5.168 1.872H1.256V4.392H3.668C4.004 4.392 4.172 4.56 4.172 4.896C4.172 5.232 4.004 5.4 3.668 5.4H1.256V8.496C1.256 8.832 1.088 9 0.752 9ZM12.2223 2.916C12.5583 2.916 12.7263 3.084 12.7263 3.42V8.496C12.7263 8.832 12.5583 9 12.2223 9C11.8863 9 11.7183 8.832 11.7183 8.496V8.298C11.2943 8.766 10.6703 9 9.84631 9H9.51031C8.71431 9 8.12231 8.808 7.73431 8.424C7.35031 8.036 7.15831 7.444 7.15831 6.648V3.42C7.15831 3.084 7.32631 2.916 7.66231 2.916C7.99831 2.916 8.16631 3.084 8.16631 3.42V6.648C8.16631 7.168 8.26031 7.522 8.44831 7.71C8.64031 7.898 8.99431 7.992 9.51031 7.992H9.84631C10.3263 7.992 10.7443 7.936 11.1003 7.824C11.4603 7.712 11.6663 7.54 11.7183 7.308V3.42C11.7183 3.084 11.8863 2.916 12.2223 2.916ZM16.6876 9C16.3516 9 16.1836 8.832 16.1836 8.496V3.42C16.1836 3.084 16.3516 2.916 16.6876 2.916C17.0236 2.916 17.1916 3.084 17.1916 3.42V3.618C17.6156 3.15 18.2396 2.916 19.0636 2.916H19.3996C20.1996 2.916 20.7916 3.108 21.1756 3.492C21.5596 3.876 21.7516 4.468 21.7516 5.268V8.496C21.7516 8.832 21.5836 9 21.2476 9C20.9116 9 20.7436 8.832 20.7436 8.496V5.268C20.7436 4.744 20.6476 4.39 20.4556 4.206C20.2676 4.018 19.9156 3.924 19.3996 3.924H19.0636C18.5836 3.924 18.1656 3.98 17.8096 4.092C17.4536 4.2 17.2476 4.372 17.1916 4.608V8.496C17.1916 8.832 17.0236 9 16.6876 9ZM26.5169 9C26.0089 9 25.6069 8.896 25.3109 8.688C25.0149 8.476 24.8249 8.16 24.7409 7.74C24.7129 7.572 24.7449 7.44 24.8369 7.344C24.9329 7.248 25.0649 7.2 25.2329 7.2C25.3969 7.2 25.5149 7.242 25.5869 7.326C25.6629 7.406 25.7249 7.528 25.7729 7.692C25.8209 7.812 25.9009 7.892 26.0129 7.932C26.1289 7.972 26.2969 7.992 26.5169 7.992H28.4849C28.7969 7.992 29.0069 7.942 29.1149 7.842C29.2229 7.738 29.2769 7.524 29.2769 7.2C29.2769 6.88 29.2229 6.668 29.1149 6.564C29.0069 6.46 28.7969 6.408 28.4849 6.408H26.5529C25.9769 6.408 25.5429 6.262 25.2509 5.97C24.9589 5.678 24.8129 5.244 24.8129 4.668C24.8129 4.08 24.9549 3.642 25.2389 3.354C25.5269 3.062 25.9649 2.916 26.5529 2.916H28.4249C29.3649 2.916 29.9209 3.312 30.0929 4.104C30.1249 4.272 30.0929 4.402 29.9969 4.494C29.9009 4.586 29.7689 4.632 29.6009 4.632C29.4449 4.632 29.3289 4.592 29.2529 4.512C29.1769 4.428 29.1169 4.312 29.0729 4.164C29.0249 4.068 28.9509 4.004 28.8509 3.972C28.7549 3.94 28.6129 3.924 28.4249 3.924H26.5529C26.2489 3.924 26.0509 3.97 25.9589 4.062C25.8669 4.154 25.8209 4.356 25.8209 4.668C25.8209 4.956 25.8689 5.15 25.9649 5.25C26.0649 5.35 26.2609 5.4 26.5529 5.4H28.4849C29.0849 5.4 29.5349 5.55 29.8349 5.85C30.1349 6.15 30.2849 6.6 30.2849 7.2C30.2849 7.804 30.1349 8.256 29.8349 8.556C29.5349 8.852 29.0849 9 28.4849 9H26.5169ZM33.8889 9C33.5529 9 33.3849 8.832 33.3849 8.496V1.056C33.3849 0.719999 33.5529 0.551999 33.8889 0.551999C34.2249 0.551999 34.3929 0.719999 34.3929 1.056V3.618C34.8169 3.15 35.4409 2.916 36.2649 2.916H36.6009C37.4009 2.916 37.9929 3.108 38.3769 3.492C38.7609 3.876 38.9529 4.468 38.9529 5.268V8.496C38.9529 8.832 38.7849 9 38.4489 9C38.1129 9 37.9449 8.832 37.9449 8.496V5.268C37.9449 4.744 37.8489 4.39 37.6569 4.206C37.4689 4.018 37.1169 3.924 36.6009 3.924H36.2649C35.7849 3.924 35.3669 3.98 35.0109 4.092C34.6549 4.2 34.4489 4.372 34.3929 4.608V8.496C34.3929 8.832 34.2249 9 33.8889 9ZM44.3542 9C43.5582 9 42.9662 8.808 42.5782 8.424C42.1942 8.04 42.0022 7.452 42.0022 6.66V5.268C42.0022 4.464 42.1942 3.872 42.5782 3.492C42.9662 3.108 43.5582 2.916 44.3542 2.916H45.3382C46.1382 2.916 46.7302 3.108 47.1142 3.492C47.4982 3.876 47.6902 4.468 47.6902 5.268V6.648C47.6902 7.444 47.4982 8.036 47.1142 8.424C46.7302 8.808 46.1382 9 45.3382 9H44.3542ZM43.0102 6.66C43.0102 7.176 43.1042 7.528 43.2922 7.716C43.4802 7.9 43.8342 7.992 44.3542 7.992H45.3382C45.8622 7.992 46.2162 7.898 46.4002 7.71C46.5882 7.522 46.6822 7.168 46.6822 6.648V5.268C46.6822 4.744 46.5882 4.39 46.4002 4.206C46.2162 4.018 45.8622 3.924 45.3382 3.924H44.3542C44.0062 3.924 43.7342 3.964 43.5382 4.044C43.3462 4.12 43.2102 4.256 43.1302 4.452C43.0502 4.644 43.0102 4.916 43.0102 5.268V6.66Z" fill="black"/>
<path d="M50.498 9C50.178 9 50.018 8.84 50.018 8.52V8.22C50.018 7.908 50.178 7.752 50.498 7.752H50.786C51.09 7.752 51.242 7.908 51.242 8.22V8.52C51.242 8.84 51.09 9 50.786 9H50.498Z" fill="#FF1010"/>
</svg>
